<svg xmlns="http://www.w3.org/2000/svg" viewBox="26 233 110 135" width="110" height="135">
<rect x="26" y="233" width="110" height="135" rx="20" fill="#17281e"/>
<g transform="translate(0,0)">
<path d="M84.1246 268.007C84.1198 271.168 83.0089 274.224 80.9877 276.638C78.9737 274.219 77.8676 271.16 77.87 268C77.8748 264.84 78.9857 261.783 81.0068 259.37C83.0208 261.788 84.1269 264.847 84.1246 268.007Z" fill="#94A276"/>
<path d="M72.4612 312.3C72.4373 314.928 71.4936 317.464 69.7973 319.459C68.1369 317.435 67.2363 314.882 67.2578 312.254C67.2817 309.626 68.2253 307.09 69.9216 305.096C71.582 307.119 72.4827 309.672 72.4612 312.3Z" fill="#94A276"/>
<path d="M94.4835 309.788C94.4596 312.416 93.516 314.952 91.8197 316.946C90.1593 314.923 89.2587 312.37 89.2802 309.742C89.304 307.114 90.2477 304.578 91.944 302.584C93.6044 304.607 94.505 307.16 94.4835 309.788Z" fill="#94A276"/>
<path d="M68.2636 279.846C70.4113 282.149 73.2973 283.608 76.4103 283.974C76.2383 280.821 74.9673 277.827 72.8171 275.525C70.6694 273.222 67.7834 271.762 64.6704 271.396C64.8424 274.549 66.1134 277.543 68.2636 279.846Z" fill="#94A276"/>
<path d="M100.459 291.152C103.591 291.017 106.668 292.002 109.15 293.932C106.842 296.068 103.861 297.316 100.729 297.453C97.5965 297.588 94.5194 296.603 92.0371 294.674C94.345 292.537 97.3265 291.289 100.459 291.152Z" fill="#94A276"/>
<path d="M61.4954 293.06C64.6274 292.925 67.7045 293.91 70.1868 295.839C67.8789 297.976 64.8974 299.223 61.7653 299.361C58.6333 299.496 55.5562 298.51 53.0739 296.581C55.3817 294.445 58.3633 293.197 61.4954 293.06Z" fill="#94A276"/>
<path d="M64.2667 319.916C67.3987 319.781 70.4758 320.766 72.9581 322.696C70.6502 324.832 67.6687 326.08 64.5366 326.217C61.4046 326.352 58.3275 325.367 55.8452 323.438C58.1531 321.301 61.1346 320.053 64.2667 319.916Z" fill="#94A276"/>
<path d="M100.459 313.866C103.591 313.731 106.668 314.716 109.15 316.645C106.842 318.782 103.861 320.029 100.729 320.167C97.5965 320.302 94.5194 319.316 92.0371 317.387C94.345 315.251 97.3265 314.003 100.459 313.866Z" fill="#94A276"/>
<path d="M80.3952 361.275C53.7094 361.275 32 339.388 32 312.483V288.811C32 261.345 54.1633 239 81.4058 239C108.648 239 130.611 261.254 130.611 288.609V310.65C130.611 338.566 108.084 361.277 80.3952 361.277V361.275ZM81.4058 244.863C57.3718 244.863 37.8174 264.577 37.8174 288.808V312.481C37.8174 336.15 56.9179 355.408 80.3952 355.408C103.873 355.408 124.794 335.327 124.794 310.645V288.604C124.794 264.484 105.33 244.86 81.4058 244.86V244.863Z" fill="#94A276"/>
<path d="M75.4881 296.415L63.1534 283.986H56.1916L75.4881 303.431V296.415Z" fill="#94A276"/>
<path d="M75.4881 321.313L61.0319 306.746H54.0678L75.4881 328.332V321.313Z" fill="#94A276"/>
<path d="M108.641 303.675H101.677L83.673 321.814V309.805C83.673 306.97 84.7911 304.25 86.7788 302.246L104.484 284.403H97.52L83.673 298.356V296.461C83.673 290.791 85.9068 285.352 89.8846 281.342L99.0849 272.066H92.1207L84.9464 279.314C80.9782 283.322 78.7492 288.753 78.7492 294.416V340.248H83.673V333.255C83.673 330.42 84.7911 327.701 86.7788 325.697L108.639 303.667L108.641 303.675Z" fill="#94A276"/>
</g>
</svg>
