<svg width="537" height="134" viewBox="26 233 537 134" fill="none" xmlns="http://www.w3.org/2000/svg">
<path d="M84.1246 268.007C84.1198 271.168 83.0089 274.224 80.9877 276.638C78.9737 274.219 77.8676 271.16 77.87 268C77.8748 264.84 78.9857 261.783 81.0068 259.37C83.0208 261.788 84.1269 264.847 84.1246 268.007Z" fill="#94A276"/>
<path d="M72.4612 312.3C72.4373 314.928 71.4936 317.464 69.7973 319.459C68.1369 317.435 67.2363 314.882 67.2578 312.254C67.2817 309.626 68.2253 307.09 69.9216 305.096C71.582 307.119 72.4827 309.672 72.4612 312.3Z" fill="#94A276"/>
<path d="M94.4835 309.788C94.4596 312.416 93.516 314.952 91.8197 316.946C90.1593 314.923 89.2587 312.37 89.2802 309.742C89.304 307.114 90.2477 304.578 91.944 302.584C93.6044 304.607 94.505 307.16 94.4835 309.788Z" fill="#94A276"/>
<path d="M68.2636 279.846C70.4113 282.149 73.2973 283.608 76.4103 283.974C76.2383 280.821 74.9673 277.827 72.8171 275.525C70.6694 273.222 67.7834 271.762 64.6704 271.396C64.8424 274.549 66.1134 277.543 68.2636 279.846Z" fill="#94A276"/>
<path d="M100.459 291.152C103.591 291.017 106.668 292.002 109.15 293.932C106.842 296.068 103.861 297.316 100.729 297.453C97.5965 297.588 94.5194 296.603 92.0371 294.674C94.345 292.537 97.3265 291.289 100.459 291.152Z" fill="#94A276"/>
<path d="M61.4954 293.06C64.6274 292.925 67.7045 293.91 70.1868 295.839C67.8789 297.976 64.8974 299.223 61.7653 299.361C58.6333 299.496 55.5562 298.51 53.0739 296.581C55.3817 294.445 58.3633 293.197 61.4954 293.06Z" fill="#94A276"/>
<path d="M64.2667 319.916C67.3987 319.781 70.4758 320.766 72.9581 322.696C70.6502 324.832 67.6687 326.08 64.5366 326.217C61.4046 326.352 58.3275 325.367 55.8452 323.438C58.1531 321.301 61.1346 320.053 64.2667 319.916Z" fill="#94A276"/>
<path d="M100.459 313.866C103.591 313.731 106.668 314.716 109.15 316.645C106.842 318.782 103.861 320.029 100.729 320.167C97.5965 320.302 94.5194 319.316 92.0371 317.387C94.345 315.251 97.3265 314.003 100.459 313.866Z" fill="#94A276"/>
<path d="M80.3952 361.275C53.7094 361.275 32 339.388 32 312.483V288.811C32 261.345 54.1633 239 81.4058 239C108.648 239 130.611 261.254 130.611 288.609V310.65C130.611 338.566 108.084 361.277 80.3952 361.277V361.275ZM81.4058 244.863C57.3718 244.863 37.8174 264.577 37.8174 288.808V312.481C37.8174 336.15 56.9179 355.408 80.3952 355.408C103.873 355.408 124.794 335.327 124.794 310.645V288.604C124.794 264.484 105.33 244.86 81.4058 244.86V244.863Z" fill="#94A276"/>
<path d="M75.4881 296.415L63.1534 283.986H56.1916L75.4881 303.431V296.415Z" fill="#94A276"/>
<path d="M75.4881 321.313L61.0319 306.746H54.0678L75.4881 328.332V321.313Z" fill="#94A276"/>
<path d="M108.641 303.675H101.677L83.673 321.814V309.805C83.673 306.97 84.7911 304.25 86.7788 302.246L104.484 284.403H97.52L83.673 298.356V296.461C83.673 290.791 85.9068 285.352 89.8846 281.342L99.0849 272.066H92.1207L84.9464 279.314C80.9782 283.322 78.7492 288.753 78.7492 294.416V340.248H83.673V333.255C83.673 330.42 84.7911 327.701 86.7788 325.697L108.639 303.667L108.641 303.675Z" fill="#94A276"/>
<path d="M154.131 333.589H142.709V291.334H154.131V333.589ZM141.335 277.507C141.335 275.56 142.022 273.9 143.396 272.526C144.77 271.094 146.43 270.379 148.377 270.379C150.324 270.379 151.984 271.066 153.358 272.44C154.732 273.814 155.419 275.503 155.419 277.507C155.419 279.396 154.732 281.028 153.358 282.402C151.984 283.776 150.324 284.463 148.377 284.463C146.43 284.463 144.77 283.776 143.396 282.402C142.022 281.028 141.335 279.396 141.335 277.507ZM180.445 278.709V291.334H188.948V301.468H180.445V319.16C180.445 320.935 180.846 322.195 181.648 322.939C182.449 323.684 183.709 324.056 185.426 324.056C186.972 324.056 188.146 323.941 188.948 323.712V333.159C187.287 333.847 185.14 334.19 182.506 334.19C178.384 334.19 175.12 333.045 172.716 330.755C170.311 328.407 169.109 325.201 169.109 321.136V301.468H161.465V291.334H163.612C165.73 291.334 167.334 290.733 168.421 289.531C169.567 288.271 170.139 286.639 170.139 284.635V278.709H180.445ZM223.828 291.162V302.671C222.683 302.442 221.538 302.327 220.393 302.327C217.13 302.327 214.496 303.272 212.492 305.161C210.488 306.994 209.486 310.028 209.486 314.265V333.589H198.063V291.334H209.142V297.604C211.204 293.195 215.211 290.991 221.166 290.991C221.796 290.991 222.683 291.048 223.828 291.162ZM259.434 333.589C259.205 332.444 259.09 330.926 259.09 329.037C258.002 330.926 256.371 332.358 254.195 333.331C252.077 334.247 249.815 334.705 247.41 334.705C242.429 334.705 238.507 333.131 235.644 329.982C232.781 326.775 231.35 322.796 231.35 318.044V291.334H242.772V315.725C242.772 318.244 243.431 320.306 244.748 321.909C246.065 323.455 247.983 324.228 250.502 324.228C252.964 324.228 254.911 323.483 256.342 321.995C257.773 320.449 258.489 318.416 258.489 315.897V291.334H269.912V325.945C269.912 328.636 270.055 331.184 270.341 333.589H259.434ZM278.495 321.823L288.285 319.676C288.4 321.508 289.116 323.054 290.432 324.313C291.807 325.516 293.667 326.117 296.015 326.117C297.79 326.117 299.164 325.716 300.137 324.915C301.111 324.113 301.597 323.111 301.597 321.909C301.597 319.79 300.08 318.416 297.046 317.786L291.463 316.498C287.512 315.639 284.535 314.093 282.531 311.86C280.584 309.627 279.611 306.965 279.611 303.873C279.611 300.037 281.1 296.773 284.077 294.082C287.112 291.391 290.891 290.046 295.414 290.046C298.277 290.046 300.796 290.475 302.971 291.334C305.147 292.136 306.836 293.195 308.039 294.512C309.241 295.771 310.157 297.06 310.787 298.377C311.417 299.693 311.817 300.982 311.989 302.241L302.456 304.388C302.227 302.9 301.54 301.583 300.395 300.438C299.307 299.293 297.675 298.72 295.5 298.72C294.011 298.72 292.723 299.121 291.635 299.923C290.604 300.724 290.089 301.726 290.089 302.928C290.089 304.99 291.377 306.249 293.954 306.707L299.966 307.996C304.031 308.854 307.123 310.429 309.241 312.719C311.417 315.009 312.505 317.758 312.505 320.964C312.505 324.743 311.073 328.006 308.21 330.755C305.348 333.503 301.311 334.877 296.101 334.877C293.123 334.877 290.461 334.448 288.114 333.589C285.766 332.673 283.934 331.528 282.617 330.154C281.357 328.722 280.384 327.319 279.697 325.945C279.067 324.514 278.666 323.14 278.495 321.823ZM335.774 278.709V291.334H344.276V301.468H335.774V319.16C335.774 320.935 336.174 322.195 336.976 322.939C337.778 323.684 339.037 324.056 340.755 324.056C342.301 324.056 343.475 323.941 344.276 323.712V333.159C342.616 333.847 340.469 334.19 337.835 334.19C333.712 334.19 330.449 333.045 328.044 330.755C325.639 328.407 324.437 325.201 324.437 321.136V301.468H316.793V291.334H318.94C321.059 291.334 322.662 290.733 323.75 289.531C324.895 288.271 325.468 286.639 325.468 284.635V278.709H335.774Z" fill="#17281E"/>
<path d="M378.83 298.497C375.338 298.497 372.36 299.756 369.898 302.276C367.493 304.795 366.291 308.345 366.291 312.925C366.291 317.448 367.493 320.998 369.898 323.575C372.36 326.151 375.366 327.439 378.916 327.439C382.351 327.439 384.956 326.581 386.731 324.863C388.564 323.145 389.795 321.17 390.424 318.937L397.553 322.029C396.408 325.464 394.232 328.47 391.026 331.047C387.877 333.623 383.84 334.911 378.916 334.911C372.904 334.911 367.923 332.821 363.972 328.642C360.022 324.462 358.046 319.223 358.046 312.925C358.046 306.512 360.022 301.274 363.972 297.208C367.923 293.086 372.876 291.025 378.83 291.025C383.869 291.025 387.934 292.313 391.026 294.89C394.175 297.466 396.236 300.558 397.209 304.165L389.909 307.257C389.279 304.852 388.077 302.791 386.302 301.073C384.527 299.355 382.036 298.497 378.83 298.497ZM404.028 322.544C404.028 318.994 405.173 316.16 407.463 314.042C409.753 311.866 412.788 310.52 416.567 310.005L427.731 308.373C429.85 308.087 430.909 307.056 430.909 305.281C430.909 303.106 430.165 301.331 428.676 299.957C427.188 298.583 424.955 297.895 421.977 297.895C419.229 297.895 417.053 298.668 415.45 300.214C413.847 301.703 412.902 303.707 412.616 306.226L404.886 304.423C405.287 300.472 407.091 297.266 410.297 294.804C413.503 292.284 417.34 291.025 421.805 291.025C427.646 291.025 431.968 292.456 434.774 295.319C437.579 298.125 438.982 301.732 438.982 306.14V326.838C438.982 329.3 439.154 331.562 439.497 333.623H431.596C431.31 331.905 431.167 330.045 431.167 328.041C430.022 329.873 428.333 331.476 426.1 332.85C423.924 334.224 421.176 334.911 417.855 334.911C413.79 334.911 410.469 333.709 407.892 331.304C405.316 328.842 404.028 325.922 404.028 322.544ZM418.971 328.126C422.578 328.126 425.47 327.153 427.646 325.206C429.821 323.26 430.909 320.168 430.909 315.931V314.042L418.284 315.931C416.452 316.217 414.992 316.876 413.904 317.906C412.816 318.937 412.272 320.34 412.272 322.115C412.272 323.718 412.874 325.121 414.076 326.323C415.336 327.525 416.967 328.126 418.971 328.126ZM474.49 291.884V300.472C473.287 300.3 472.114 300.214 470.968 300.214C463.411 300.214 459.632 304.451 459.632 312.925V333.623H451.559V292.313H459.46V299.527C461.979 294.26 466.102 291.626 471.827 291.626C472.743 291.626 473.631 291.712 474.49 291.884ZM487.914 308.717H510.501C510.387 305.625 509.356 303.106 507.409 301.159C505.463 299.155 502.714 298.153 499.164 298.153C495.958 298.153 493.324 299.212 491.263 301.331C489.202 303.392 488.085 305.854 487.914 308.717ZM511.703 319.452L518.66 321.857C517.458 325.693 515.225 328.842 511.961 331.304C508.698 333.709 504.747 334.911 500.109 334.911C494.326 334.911 489.402 332.936 485.337 328.985C481.329 324.977 479.325 319.595 479.325 312.839C479.325 306.541 481.272 301.331 485.165 297.208C489.059 293.086 493.697 291.025 499.079 291.025C505.319 291.025 510.186 293 513.679 296.951C517.171 300.844 518.918 306.083 518.918 312.667C518.918 313.698 518.86 314.557 518.746 315.244H487.656C487.713 318.908 488.916 321.914 491.263 324.262C493.668 326.609 496.617 327.783 500.109 327.783C506.006 327.783 509.871 325.006 511.703 319.452ZM525.358 322.888L532.658 320.311C532.945 322.544 533.918 324.405 535.578 325.894C537.239 327.325 539.472 328.041 542.277 328.041C544.453 328.041 546.171 327.525 547.43 326.495C548.69 325.407 549.32 324.09 549.32 322.544C549.32 319.796 547.545 318.021 543.995 317.219L536.953 315.673C533.746 314.986 531.227 313.612 529.395 311.551C527.563 309.49 526.647 306.999 526.647 304.079C526.647 300.529 528.078 297.466 530.941 294.89C533.861 292.313 537.325 291.025 541.333 291.025C543.966 291.025 546.314 291.426 548.375 292.227C550.436 292.971 552.039 293.973 553.185 295.233C554.33 296.493 555.188 297.666 555.761 298.754C556.334 299.842 556.763 300.959 557.049 302.104L549.921 304.766C549.806 304.079 549.606 303.421 549.32 302.791C549.033 302.104 548.575 301.359 547.946 300.558C547.373 299.756 546.514 299.126 545.369 298.668C544.224 298.153 542.879 297.895 541.333 297.895C539.329 297.895 537.668 298.439 536.351 299.527C535.092 300.615 534.462 301.903 534.462 303.392C534.462 306.026 536.036 307.686 539.186 308.373L545.884 309.833C549.549 310.635 552.354 312.124 554.301 314.299C556.305 316.418 557.307 319.023 557.307 322.115C557.307 325.378 555.961 328.327 553.27 330.961C550.637 333.594 546.944 334.911 542.191 334.911C537.096 334.911 533.116 333.652 530.254 331.132C527.391 328.556 525.759 325.808 525.358 322.888Z" fill="#94A276"/>
</svg>
